<svg width="92" height="30" viewBox="0 0 92 30" fill="none" xmlns="http://www.w3.org/2000/svg">
<path fill-rule="evenodd" clip-rule="evenodd" d="M22.8 12.3504C22.7996 12.3721 22.7992 12.399 22.7986 12.416L22.7964 12.416C22.7973 12.4414 22.7979 12.4347 22.7986 12.416H22.8012C22.8012 12.2835 22.8008 12.3058 22.8 12.3504ZM11.8594 23.3034H11.8595V23.3055H11.8594V23.3034ZM11.8594 23.3034C11.8338 23.3043 11.8406 23.3049 11.8595 23.3056V23.3055C11.8771 23.3061 11.9053 23.3066 11.9279 23.307C11.9743 23.3077 11.9975 23.3081 11.8594 23.3081C8.64705 23.3081 5.7477 22.0029 3.6477 19.8927C1.54553 17.7803 0.249878 14.8649 0.249878 11.6501C0.249878 8.43531 1.54531 5.52249 3.64683 3.41249C5.74705 1.30357 8.64683 -0.00012207 11.8594 -0.00012207C13.3714 -0.00012207 14.8177 0.289008 16.146 0.814661C17.5197 1.35857 18.769 2.16053 19.8351 3.16205L17.5671 5.5727C16.8116 4.86292 15.9179 4.2914 14.9277 3.89944C13.9797 3.52401 12.9447 3.3177 11.8594 3.3177C9.5577 3.3177 7.48662 4.2451 5.99249 5.74531C4.49249 7.25162 3.56792 9.33901 3.56792 11.6501C3.56792 13.9621 4.4927 16.0518 5.99357 17.5599C7.48792 19.0614 9.55857 19.9903 11.8594 19.9903C12.1155 19.9903 11.9888 19.9936 11.9149 19.9956H11.9149C11.8632 19.9969 11.8375 19.9976 11.9868 19.996C14.2475 19.9718 16.1355 19.2784 17.436 18.0057C18.451 17.0125 19.1336 15.6405 19.3836 13.9303H11.9507V10.6125H21.1414H22.776L22.7938 12.2586C22.7947 12.3455 22.7955 12.3934 22.7964 12.416H22.7947C22.7947 15.7881 21.6779 18.4836 19.756 20.3647C17.8351 22.2442 15.1518 23.2675 12.0129 23.301C11.9284 23.3018 11.8818 23.3027 11.8594 23.3034V23.3034ZM31.5396 11.33C32.7309 11.33 33.8083 11.8272 34.587 12.6309C35.3668 13.4359 35.8491 14.5537 35.8491 15.7937C35.8491 17.0337 35.3668 18.1517 34.587 18.9565C33.8083 19.7602 32.7309 20.2574 31.5396 20.2574C30.3481 20.2574 29.2707 19.7602 28.492 18.9565C27.7122 18.1517 27.2298 17.0337 27.2298 15.7937C27.2298 14.5537 27.7122 13.4359 28.492 12.6309C29.2707 11.8272 30.3481 11.33 31.5396 11.33ZM36.8652 10.5339C35.5011 9.18239 33.6181 8.3463 31.5396 8.3463C29.4611 8.3463 27.5778 9.18239 26.2137 10.5339C24.8507 11.8843 24.0076 13.7443 24.0076 15.7937C24.0076 17.843 24.8507 19.703 26.2137 21.0535C27.5778 22.4052 29.4611 23.2411 31.5396 23.2411C33.6181 23.2411 35.5011 22.4052 36.8652 21.0535C38.2285 19.703 39.0715 17.843 39.0715 15.7937C39.0715 13.7443 38.2285 11.8843 36.8652 10.5339ZM50.7863 12.6309C50.0076 11.8272 48.9303 11.33 47.7389 11.33C46.5474 11.33 45.47 11.8272 44.6913 12.6309C43.9118 13.4359 43.4294 14.5537 43.4294 15.7937C43.4294 17.0337 43.9118 18.1517 44.6913 18.9565C45.47 19.7602 46.5474 20.2574 47.7389 20.2574C48.9303 20.2574 50.0076 19.7602 50.7863 18.9565C51.5661 18.1517 52.0485 17.0337 52.0485 15.7937C52.0485 14.5537 51.5661 13.4359 50.7863 12.6309ZM47.7389 8.3463C49.8174 8.3463 51.7005 9.18239 53.0648 10.5339C54.4279 11.8843 55.2709 13.7443 55.2709 15.7937C55.2709 17.843 54.4279 19.703 53.0648 21.0535C51.7005 22.4052 49.8174 23.2411 47.7389 23.2411C45.6605 23.2411 43.7774 22.4052 42.4131 21.0535C41.05 19.703 40.2068 17.843 40.2068 15.7937C40.2068 13.7443 41.05 11.8843 42.4131 10.5339C43.7774 9.18239 45.6605 8.3463 47.7389 8.3463ZM63.8094 11.33C64.9442 11.33 65.9705 11.8272 66.7123 12.6309C67.4551 13.4359 67.9144 14.5537 67.9144 15.7937C67.9144 17.0337 67.4551 18.1517 66.7123 18.9565C65.9705 19.7602 64.9442 20.3393 63.8094 20.3393C61.3938 20.3393 59.7044 18.2996 59.7044 15.7937C59.7044 14.5537 60.1638 13.4359 60.9066 12.6309C61.6483 11.8272 62.6744 11.33 63.8094 11.33ZM67.6027 10.0626C66.4975 8.99087 65.2677 8.3463 63.2399 8.3463C59.844 8.3463 56.4253 11.6543 56.4253 15.7937C56.4253 17.843 57.1881 19.703 58.4214 21.0535C59.6557 22.4052 61.6746 23.2411 63.5551 23.2411C65.2081 23.2411 66.4805 22.5952 67.6027 21.5211V23.1515C67.6027 25.5672 65.6192 27.0333 64.0381 27.0333C61.8064 27.0333 60.6131 26.1217 59.8136 24.3526L56.9894 25.6254C57.6625 27.1148 58.6436 28.1722 59.7936 28.88C61.0862 29.6757 62.5651 29.9596 64.0381 29.9596C65.6512 29.9596 67.2805 29.2789 68.4933 28.2004C69.7525 27.0809 70.6823 24.9346 70.6823 22.9557V8.7663H67.6027V10.0626ZM72.6732 22.8143H75.853V0.958695H72.6732V22.8143ZM88.356 18.2838C86.6843 21.0697 82.2736 21.0369 81.0219 18.0547C82.9487 17.2788 84.8702 16.4936 86.7916 15.7084C88.2202 15.1246 89.6488 14.5409 91.0793 13.961C89.9695 11.1008 88.451 9.45515 86.5804 8.77581C83.7002 7.72972 80.908 8.70494 79.0978 10.623C76.8791 12.9743 76.1939 17.9341 79.3958 21.1665C80.7063 22.4893 82.4597 23.3058 84.6386 23.3034C87.0856 23.2899 89.3321 22.2317 90.8743 19.9717L88.356 18.2838ZM87.288 12.8065L80.5158 15.5338C80.4163 14.0995 81.1871 12.8304 82.0673 12.0869C84.356 10.5254 86.0926 11.2695 87.288 12.8065Z" fill="#969696"/>
</svg>
