<svg width="18" height="18" viewBox="0 0 18 18" fill="none" xmlns="http://www.w3.org/2000/svg">
<path fill-rule="evenodd" clip-rule="evenodd" d="M12 1.5C14.4853 1.5 16.5 3.51472 16.5 6V12C16.5 14.4853 14.4853 16.5 12 16.5H6C3.51472 16.5 1.5 14.4853 1.5 12V6C1.5 3.51472 3.51472 1.5 6 1.5L12 1.5ZM11.25 3.75H6.75C5.14335 3.75 3.83169 5.01298 3.75367 6.60027L3.75 6.75V11.25C3.75 12.8566 5.01298 14.1683 6.60027 14.2463L6.75 14.25H11.25C12.8566 14.25 14.1683 12.987 14.2463 11.3997L14.25 11.25V6.75C14.25 5.14335 12.987 3.83169 11.3997 3.75367L11.25 3.75Z" fill="white"/>
</svg>
