<svg width="115" height="30" viewBox="0 0 115 30" fill="none" xmlns="http://www.w3.org/2000/svg">
<path fill-rule="evenodd" clip-rule="evenodd" d="M112.57 0.201782H87.7998C86.6161 0.201782 85.6543 1.13998 85.6543 2.29618V27.1712C85.6543 28.3286 86.6161 29.268 87.7998 29.268H112.57C113.756 29.268 114.722 28.3286 114.722 27.1712V2.29618C114.722 1.13998 113.756 0.201782 112.57 0.201782ZM92.1207 4.20351C93.4989 4.20351 94.619 5.32357 94.619 6.70241C94.619 8.08246 93.4989 9.20253 92.1207 9.20253C90.7388 9.20253 89.6204 8.08246 89.6204 6.70241C89.6204 5.32357 90.7388 4.20351 92.1207 4.20351ZM94.2752 24.9701H89.9639V11.0987H94.2752V24.9701ZM96.9795 11.0987H101.114V12.9941H101.172C101.748 11.9035 103.154 10.754 105.251 10.754C109.617 10.754 110.423 13.6271 110.423 17.3615V24.9701H106.115V18.2244C106.115 16.6159 106.085 14.5467 103.874 14.5467C101.631 14.5467 101.287 16.299 101.287 18.1082V24.9701H96.9795V11.0987ZM16.9329 4.19729C18.313 4.19729 19.4331 5.31735 19.4331 6.69619C19.4331 8.07746 18.313 9.19429 16.9329 9.19429C15.5545 9.19429 14.4344 8.07746 14.4344 6.69619C14.4344 5.31735 15.5545 4.19729 16.9329 4.19729ZM19.0879 24.9638V11.0925H14.778V24.9638H19.0879ZM0.0119019 4.50061V24.9694H12.7975V20.8321H4.49601V4.50061H0.0119019ZM41.4111 4.49918H37.103V24.9694H41.4111V18.1124H41.4672L46.0397 24.9694H51.4553L45.9212 17.5088L51.5734 11.0864H46.2916L41.4111 16.7327V4.49918ZM21.4714 11.0945H25.6083V12.9907H25.6661C26.2401 11.8989 27.6482 10.7501 29.7453 10.7501C34.1129 10.7501 34.9171 13.6229 34.9171 17.3569V24.9638H30.6074V18.2194C30.6074 16.6101 30.5777 14.5423 28.3652 14.5423C26.1249 14.5423 25.7811 16.2952 25.7811 18.1043V24.9638H21.4714V11.0945ZM58.4026 25.3218C60.6449 25.3218 62.9133 24.3154 64.2925 22.5625L61.2763 20.3502C60.5577 21.327 59.6104 22.0456 58.2021 22.0456C56.5354 22.0456 55.2981 20.9826 54.956 19.3448H64.9538V17.9944C64.9538 13.542 62.4281 10.6693 58.4026 10.6693C54.0941 10.6693 50.6463 13.542 50.6463 17.9944C50.6463 22.4475 54.0941 25.3218 58.4026 25.3218ZM57.9997 13.7721C59.5527 13.7721 60.673 14.979 60.6449 16.4156H54.956C55.0696 15.065 56.1047 13.7721 57.9997 13.7721ZM81.3446 24.9619H77.379V23.1224H77.3229C76.66 24.1276 74.9951 25.3064 73.0408 25.3064C68.9025 25.3064 66.1737 22.3196 66.1737 18.0957C66.1737 14.2168 68.5868 10.6543 72.5514 10.6543C74.3343 10.6543 76.0002 11.1424 76.9771 12.4927H77.0332V4.49907H81.3446V24.9619ZM73.9294 14.4469C71.7762 14.4469 70.4836 15.8844 70.4836 17.98C70.4836 20.0791 71.7762 21.5136 73.9294 21.5136C76.0855 21.5136 77.379 20.0791 77.379 17.98C77.379 15.8844 76.0855 14.4469 73.9294 14.4469Z" fill="#969696"/>
</svg>
