<svg width="102" height="30" viewBox="0 0 102 30" fill="none" xmlns="http://www.w3.org/2000/svg">
<path fill-rule="evenodd" clip-rule="evenodd" d="M50.2678 2.08396H46.6134V6.59335H44.6444V9.84729H46.6134V21.2371H50.2678V9.84729H52.2666V6.59335H50.2678V2.08396ZM41.2194 0C39.8772 0 38.8209 1.0563 38.8209 2.42657C38.8209 3.76763 39.8772 4.8245 41.2194 4.8245C42.6177 4.8245 43.6746 3.76763 43.6746 2.42657C43.6746 1.0563 42.6177 0 41.2194 0ZM99.308 6.25189C98.6812 6.25189 98.195 5.76641 98.195 5.1379C98.195 4.53845 98.6812 4.05296 99.308 4.05296C99.9084 4.05296 100.393 4.53845 100.393 5.1379C100.393 5.76641 99.9084 6.25189 99.308 6.25189ZM99.308 3.88259C98.5953 3.88259 98.0246 4.45326 98.0246 5.1379C98.0246 5.85159 98.5953 6.42283 99.308 6.42283C99.9936 6.42283 100.565 5.85159 100.565 5.1379C100.565 4.45326 99.9936 3.88259 99.308 3.88259ZM56.5186 12.3888C57.0041 10.4479 58.4887 9.36295 60.4012 9.36295C62.3142 9.36295 63.7404 10.4187 64.1978 12.3888H56.5186ZM60.4862 6.13693C56.0914 6.13693 52.7509 9.50597 52.7509 13.9873C52.7509 18.4114 55.806 21.6656 60.5436 21.6656C63.1698 21.6656 65.511 20.6955 67.2237 18.8678L64.7687 16.4424C63.5695 17.5844 62.285 18.4114 60.6292 18.4114C58.6317 18.4114 57.1184 17.2693 56.6049 15.3576H67.9935V14.4728C67.9935 9.47677 64.9117 6.13693 60.4862 6.13693ZM92.8277 6.13693C91.0297 6.13693 89.4886 6.82142 88.4037 7.99268V0.4003H84.7493V21.2371H88.4037V13.2735C88.4037 11.1616 89.7459 9.70498 91.9716 9.70498C94.0557 9.70498 95.1977 10.9893 95.1977 13.2735V21.2371H98.8516V12.617C98.8516 8.56406 96.31 6.13693 92.8277 6.13693ZM99.0224 5.10983V4.65227H99.308C99.5372 4.65227 99.6231 4.73874 99.6231 4.88162C99.6231 5.02408 99.5372 5.10983 99.308 5.10983H99.0224ZM99.7933 4.88162C99.7933 4.59629 99.5933 4.48132 99.308 4.48132H98.8515V5.79432H99.0223V5.28078H99.308L99.6231 5.79432H99.8214L99.4801 5.25286C99.6802 5.22308 99.7933 5.10983 99.7933 4.88162ZM77.071 9.67692C78.6124 9.67692 79.8688 10.4758 80.8393 11.5899L83.3796 9.07761C81.9528 7.27898 79.6972 6.13693 77.129 6.13693C72.7048 6.13693 69.2214 9.50597 69.2214 13.9008C69.2214 18.297 72.7048 21.6656 77.129 21.6656C79.6972 21.6656 81.9528 20.5232 83.3796 18.7265L80.8393 16.2141C79.8973 17.2986 78.6124 18.126 77.0431 18.126C74.7017 18.126 72.9032 16.2995 72.9032 13.9008C72.9032 11.5029 74.7017 9.67692 77.071 9.67692ZM39.4208 21.2371H43.0753V6.59335H39.4208V21.2371ZM12.9881 18.126C10.6469 18.126 8.79099 16.2714 8.79099 13.8729C8.79099 11.5029 10.6469 9.67692 12.9881 9.67692C15.357 9.67692 17.2127 11.5029 17.2127 13.9008C17.2127 16.2995 15.357 18.126 12.9881 18.126ZM12.9881 6.13693C8.56292 6.13693 5.08063 9.50597 5.08063 13.9008C5.08063 18.297 8.56292 21.6656 12.9881 21.6656C17.4123 21.6656 20.8945 18.297 20.8945 13.9008C20.8945 9.50597 17.4123 6.13693 12.9881 6.13693ZM0 21.2371H3.65438V0.4003H0V21.2371ZM30.0578 18.126C27.7177 18.126 25.862 16.2714 25.862 13.8729C25.862 11.5029 27.7177 9.67692 30.0578 9.67692C32.4273 9.67692 34.283 11.5029 34.283 13.9008C34.283 16.2995 32.4273 18.126 30.0578 18.126ZM37.8225 9.50597V6.59335H32.6834C31.8565 6.30916 30.9718 6.13693 30.0578 6.13693C25.6338 6.13693 22.1516 9.50597 22.1516 13.9008C22.1516 18.297 25.6338 21.6656 30.0578 21.6656C34.482 21.6656 37.9655 18.297 37.9655 13.9008C37.9655 12.4167 37.565 10.9614 36.7662 9.87649L37.8225 9.50597ZM30.0578 26.4325C27.7177 26.4325 25.862 24.6061 25.862 22.2368H22.1516C22.1516 26.6328 25.6338 30 30.0578 30C34.482 30 37.9655 26.6328 37.9655 22.2368H34.2538C34.2538 24.6061 32.3979 26.4325 30.0578 26.4325Z" fill="#969696"/>
</svg>
