<svg width="395" height="392" viewBox="0 0 395 392" fill="none" xmlns="http://www.w3.org/2000/svg">
<g filter="url(#filter0_ii_0_1)">
<path fill-rule="evenodd" clip-rule="evenodd" d="M-227.624 0.510864H311.869C320.204 0.510864 326.96 7.27521 326.96 15.6195V376.715C326.96 385.059 320.204 391.823 311.869 391.823H-227.624C-235.958 391.823 -242.715 385.059 -242.715 376.715V15.6195C-242.715 7.27521 -235.958 0.510864 -227.624 0.510864Z" fill="white"/>
<path fill-rule="evenodd" clip-rule="evenodd" d="M-227.624 0.510864H311.869C320.204 0.510864 326.96 7.27521 326.96 15.6195V376.715C326.96 385.059 320.204 391.823 311.869 391.823H-227.624C-235.958 391.823 -242.715 385.059 -242.715 376.715V15.6195C-242.715 7.27521 -235.958 0.510864 -227.624 0.510864Z" fill="url(#paint0_linear_0_1)"/>
</g>
<g filter="url(#filter1_ii_0_1)">
<path fill-rule="evenodd" clip-rule="evenodd" d="M-307.982 383.136H392.982C393.815 383.136 394.491 383.812 394.491 384.647V391.446H-309.491V384.647C-309.491 383.812 -308.815 383.136 -307.982 383.136Z" fill="white"/>
<path fill-rule="evenodd" clip-rule="evenodd" d="M-307.982 383.136H392.982C393.815 383.136 394.491 383.812 394.491 384.647V391.446H-309.491V384.647C-309.491 383.812 -308.815 383.136 -307.982 383.136Z" fill="url(#paint1_linear_0_1)"/>
</g>
<defs>
<filter id="filter0_ii_0_1" x="-242.715" y="0.510864" width="569.674" height="401.313" filterUnits="userSpaceOnUse" color-interpolation-filters="sRGB">
<feFlood flood-opacity="0" result="BackgroundImageFix"/>
<feBlend mode="normal" in="SourceGraphic" in2="BackgroundImageFix" result="shape"/>
<feColorMatrix in="SourceAlpha" type="matrix" values="0 0 0 0 0 0 0 0 0 0 0 0 0 0 0 0 0 0 127 0" result="hardAlpha"/>
<feOffset dy="1"/>
<feGaussianBlur stdDeviation="30"/>
<feComposite in2="hardAlpha" operator="arithmetic" k2="-1" k3="1"/>
<feColorMatrix type="matrix" values="0 0 0 0 0 0 0 0 0 0 0 0 0 0 0 0 0 0 0.05 0"/>
<feBlend mode="normal" in2="shape" result="effect1_innerShadow_0_1"/>
<feColorMatrix in="SourceAlpha" type="matrix" values="0 0 0 0 0 0 0 0 0 0 0 0 0 0 0 0 0 0 127 0" result="hardAlpha"/>
<feOffset dy="10"/>
<feGaussianBlur stdDeviation="20"/>
<feComposite in2="hardAlpha" operator="arithmetic" k2="-1" k3="1"/>
<feColorMatrix type="matrix" values="0 0 0 0 1 0 0 0 0 1 0 0 0 0 1 0 0 0 1 0"/>
<feBlend mode="normal" in2="effect1_innerShadow_0_1" result="effect2_innerShadow_0_1"/>
</filter>
<filter id="filter1_ii_0_1" x="-309.491" y="383.136" width="703.982" height="18.3097" filterUnits="userSpaceOnUse" color-interpolation-filters="sRGB">
<feFlood flood-opacity="0" result="BackgroundImageFix"/>
<feBlend mode="normal" in="SourceGraphic" in2="BackgroundImageFix" result="shape"/>
<feColorMatrix in="SourceAlpha" type="matrix" values="0 0 0 0 0 0 0 0 0 0 0 0 0 0 0 0 0 0 127 0" result="hardAlpha"/>
<feOffset dy="1"/>
<feGaussianBlur stdDeviation="30"/>
<feComposite in2="hardAlpha" operator="arithmetic" k2="-1" k3="1"/>
<feColorMatrix type="matrix" values="0 0 0 0 0 0 0 0 0 0 0 0 0 0 0 0 0 0 0.05 0"/>
<feBlend mode="normal" in2="shape" result="effect1_innerShadow_0_1"/>
<feColorMatrix in="SourceAlpha" type="matrix" values="0 0 0 0 0 0 0 0 0 0 0 0 0 0 0 0 0 0 127 0" result="hardAlpha"/>
<feOffset dy="10"/>
<feGaussianBlur stdDeviation="20"/>
<feComposite in2="hardAlpha" operator="arithmetic" k2="-1" k3="1"/>
<feColorMatrix type="matrix" values="0 0 0 0 1 0 0 0 0 1 0 0 0 0 1 0 0 0 1 0"/>
<feBlend mode="normal" in2="effect1_innerShadow_0_1" result="effect2_innerShadow_0_1"/>
</filter>
<linearGradient id="paint0_linear_0_1" x1="-527.552" y1="196.167" x2="-162.302" y2="727.9" gradientUnits="userSpaceOnUse">
<stop stop-color="white" stop-opacity="0.01"/>
<stop offset="1" stop-opacity="0.03"/>
</linearGradient>
<linearGradient id="paint1_linear_0_1" x1="-661.482" y1="387.291" x2="-661.286" y2="403.908" gradientUnits="userSpaceOnUse">
<stop stop-color="white" stop-opacity="0.01"/>
<stop offset="1" stop-opacity="0.03"/>
</linearGradient>
</defs>
</svg>
