<svg width="111" height="20" viewBox="0 0 111 20" fill="none" xmlns="http://www.w3.org/2000/svg">
<path fill-rule="evenodd" clip-rule="evenodd" d="M37.8882 0.402151H32.0304V8.0318H25.9299V0.402151H20.0698V19.5992H25.9299V12.047H32.0304V19.5992H37.8882V0.402151ZM58.2755 15.7429V0.402151H52.4151V19.5992H63.0109L63.8924 15.7429H58.2755ZM42.2231 19.5992H48.0818V0.402151H42.2231V19.5992ZM65.9803 19.5992H71.8381V0.402151H65.9803V19.5992ZM100.731 5.30021C100.731 4.25706 101.775 3.77375 103.46 3.77375C105.305 3.77375 107.313 4.1759 108.676 4.74037L108.196 0.562483C106.671 0.241818 105.305 0 102.818 0C98.0828 0 94.8729 1.86824 94.8729 5.78484C94.8729 12.5294 104.025 11.1655 104.025 14.2976C104.025 15.5015 103.139 16.1425 100.971 16.1425C99.0484 16.1425 96.0754 15.5015 94.3117 14.6183L94.9543 19.038C96.719 19.6793 99.1263 20 101.054 20C105.948 20 109.962 18.393 109.962 13.5725C109.962 7.14898 100.731 8.35379 100.731 5.30021ZM84.2009 15.0205C89.6551 15.0205 93.1069 12.2074 93.1069 7.30932C93.1069 1.92762 89.4159 0 83.3952 0C81.0688 0 78.258 0.160333 76.2515 0.402151V19.5992H82.1132V15.0205H84.2009ZM87.3267 7.38948C87.3267 9.87926 86.1258 11.566 83.0749 11.566H82.1132V3.63552C82.4534 3.61573 82.774 3.61573 83.0749 3.61573C85.9632 3.61573 87.3267 4.97988 87.3267 7.38948ZM8.83532 15.0205C14.2922 15.0205 17.7427 12.2074 17.7427 7.30932C17.7427 1.92762 14.0504 0 8.03267 0C5.70422 0 2.8951 0.160333 0.889954 0.402151V19.5992H6.74737V15.0205H8.83532ZM11.9664 7.38948C11.9664 9.87926 10.7616 11.566 7.712 11.566H6.74737V3.63552C7.09047 3.61573 7.41113 3.61573 7.712 3.61573C10.599 3.61573 11.9664 4.97988 11.9664 7.38948Z" fill="#969696"/>
</svg>
