<svg width="53" height="58" viewBox="0 0 53 58" fill="none" xmlns="http://www.w3.org/2000/svg">
<path d="M15.377 7.22724C18.3304 5.52206 20.453 4.29851 22.2363 3.4907C23.9895 2.69651 25.3071 2.35641 26.627 2.35641C27.9468 2.35641 29.2644 2.69651 31.0176 3.4907C32.8009 4.29851 34.9235 5.52206 37.877 7.22724L39.8577 8.37083C42.8112 10.076 44.9321 11.3025 46.5233 12.4429C48.0877 13.5641 49.0411 14.5352 49.701 15.6782C50.3609 16.8212 50.7252 18.1324 50.914 20.0478C51.106 21.996 51.1077 24.446 51.1077 27.8564V30.1436C51.1077 33.554 51.106 36.004 50.914 37.9522C50.7252 39.8676 50.3609 41.1788 49.701 42.3218C49.0411 43.4648 48.0877 44.4359 46.5233 45.5571C44.9321 46.6975 42.8112 47.924 39.8577 49.6292L37.877 50.7728C34.9235 52.4779 32.8009 53.7015 31.0176 54.5093C29.2644 55.3035 27.9468 55.6436 26.627 55.6436C25.3071 55.6436 23.9895 55.3035 22.2363 54.5093C20.453 53.7015 18.3304 52.4779 15.377 50.7728L13.3962 49.6292C10.4427 47.924 8.3218 46.6975 6.73059 45.5571C5.1662 44.4359 4.21284 43.4648 3.55292 42.3218C2.89301 41.1788 2.52873 39.8676 2.33992 37.9522C2.14787 36.004 2.14619 33.554 2.14619 30.1436V27.8564C2.14619 24.446 2.14787 21.996 2.33992 20.0478C2.52873 18.1324 2.89301 16.8212 3.55292 15.6782C4.21284 14.5352 5.1662 13.5641 6.73059 12.4429C8.3218 11.3025 10.4427 10.076 13.3962 8.37083L15.377 7.22724Z" fill="#EAD4A2" stroke="black" stroke-width="3"/>
<path d="M23.497 37.28C22.707 37.28 21.957 37.09 21.297 36.71C19.737 35.81 18.877 33.98 18.877 31.57V24.44C18.877 22.02 19.737 20.2 21.297 19.3C22.857 18.4 24.867 18.57 26.967 19.78L33.137 23.34C35.227 24.55 36.387 26.21 36.387 28.01C36.387 29.81 35.237 31.47 33.137 32.68L26.967 36.24C25.757 36.93 24.577 37.28 23.497 37.28Z" fill="black"/>
</svg>
