<svg width="46" height="48" viewBox="0 0 46 48" fill="none" xmlns="http://www.w3.org/2000/svg">
<path d="M29.1307 17.879L16.8003 10.8195L10.5007 14.4228L7.46729 12.7059L22.9229 3.85596L25.9464 5.58246L19.8927 9.04826L32.2362 16.1077L29.1307 17.879Z" fill="white"/>
<path d="M16.7706 24.12L12.4353 25.1591L7.46708 18.787L4.89279 17.4378V34.4151L7.77534 36.0137L7.71959 22.5853L10.7366 26.2622L10.8219 37.7274L13.7733 39.374L13.7503 27.9663L15.0948 27.6466L16.8854 27.6242L16.905 41.1197L19.8565 42.7695V25.9296L16.7706 24.12ZM16.7706 24.12L12.4353 25.1591L7.46708 18.787L4.89279 17.4378V34.4151L7.77534 36.0137L7.71959 22.5853L10.7366 26.2622L10.8219 37.7274L13.7733 39.374L13.7503 27.9663L15.0948 27.6466L16.8854 27.6242L16.905 41.1197L19.8565 42.7695V25.9296L16.7706 24.12ZM16.7706 24.12L12.4353 25.1591L7.46708 18.787L4.89279 17.4378V34.4151L7.77534 36.0137L7.71959 22.5853L10.7366 26.2622L10.8219 37.7274L13.7733 39.374L13.7503 27.9663L15.0948 27.6466L16.8854 27.6242L16.905 41.1197L19.8565 42.7695V25.9296L16.7706 24.12ZM16.7706 24.12L12.4353 25.1591L7.46708 18.787L4.89279 17.4378V34.4151L7.77534 36.0137L7.71959 22.5853L10.7366 26.2622L10.8219 37.7274L13.7733 39.374L13.7503 27.9663L15.0948 27.6466L16.8854 27.6242L16.905 41.1197L19.8565 42.7695V25.9296L16.7706 24.12ZM42.3495 9.52786L26.4348 0.872963C25.3821 0.300661 24.1968 0.000244141 22.9915 0.000244141C21.7862 0.000244141 20.6009 0.300661 19.5482 0.872963L3.62696 9.52786C2.52757 10.1267 1.6119 11.0006 0.974357 12.0594C0.336812 13.1182 0.000466829 14.3237 0 15.5514L0 32.452C0.00104985 33.6792 0.337671 34.884 0.975187 35.9422C1.6127 37.0004 2.52806 37.8738 3.62696 38.4724L19.5482 47.1273C20.6009 47.6996 21.7862 48 22.9915 48C24.1968 48 25.3821 47.6996 26.4348 47.1273L42.3561 38.4724C43.4558 37.8745 44.372 37.0014 45.0102 35.9431C45.6483 34.8848 45.9853 33.6796 45.9863 32.452V15.5514C45.9859 14.3233 45.6492 13.1175 45.011 12.0586C44.3728 10.9997 43.4563 10.126 42.3561 9.52786H42.3495ZM22.9882 43.4633C22.9884 43.7475 22.9121 44.0268 22.7669 44.2733C22.6217 44.5198 22.4126 44.7248 22.1607 44.8679C21.9087 45.0109 21.6227 45.087 21.3311 45.0885C21.0396 45.09 20.7527 45.0169 20.4992 44.8764L4.46319 35.9913C3.92449 35.6926 3.47655 35.2601 3.16493 34.7378C2.8533 34.2156 2.68912 33.6221 2.68907 33.0179V14.8449L20.1057 24.2479C20.9741 24.6858 21.7023 25.3481 22.2107 26.1624C22.7191 26.9766 22.9881 27.9115 22.9882 28.8647V43.4633ZM19.299 21.7029L3.86307 13.3549C3.86307 13.3549 4.66323 11.7563 6.11271 10.9538C7.46052 10.2089 20.7124 2.83926 20.7124 2.83926C21.4675 2.419 22.322 2.19796 23.1916 2.19796C24.0611 2.19796 24.9156 2.419 25.6707 2.83926C25.6707 2.83926 39.7359 10.6853 40.5721 11.1329C40.9859 11.3652 41.3482 11.6753 41.6381 12.0452C41.9281 12.4152 42.1398 12.8375 42.261 13.2878L27.1989 21.6581C25.9968 22.326 24.6385 22.681 23.255 22.6888C21.8714 22.6966 20.509 22.3571 19.299 21.7029V21.7029ZM42.7102 19.9444L29.1632 27.7489V39.4347L39.3784 33.5199V29.5841L32.8492 33.36V29.5617L42.7102 23.877V33.4687C42.7087 34.0633 42.547 34.647 42.2414 35.1615C41.9358 35.676 41.497 36.1033 40.9689 36.4006L25.8249 44.95V27.7169C25.827 27.1233 25.9886 26.5405 26.2935 26.0267C26.5985 25.5129 27.0361 25.0859 27.5629 24.7882L42.7102 16.2261V19.9444ZM12.4353 25.1591L7.46708 18.787L4.89279 17.4378V34.4151L7.77534 36.0137L7.71959 22.5853L10.7366 26.2622L10.8219 37.7274L13.7733 39.374L13.7503 27.9663L15.0948 27.6466L16.8854 27.6242L16.905 41.1197L19.8565 42.7695V25.9296L16.7739 24.12L12.4353 25.1591ZM16.7706 24.12L12.4353 25.1591L7.46708 18.787L4.89279 17.4378V34.4151L7.77534 36.0137L7.71959 22.5853L10.7366 26.2622L10.8219 37.7274L13.7733 39.374L13.7503 27.9663L15.0948 27.6466L16.8854 27.6242L16.905 41.1197L19.8565 42.7695V25.9296L16.7706 24.12ZM16.7706 24.12L12.4353 25.1591L7.46708 18.787L4.89279 17.4378V34.4151L7.77534 36.0137L7.71959 22.5853L10.7366 26.2622L10.8219 37.7274L13.7733 39.374L13.7503 27.9663L15.0948 27.6466L16.8854 27.6242L16.905 41.1197L19.8565 42.7695V25.9296L16.7706 24.12Z" fill="white"/>
</svg>
